<svg width="346" height="125" viewBox="0 0 346 125" fill="none" xmlns="http://www.w3.org/2000/svg">
<path d="M47.579 65.9007C42.3849 66.8742 37.3107 68.4043 32.4442 70.4643C30.8041 71.1582 29.1964 71.9073 27.6212 72.7114C27.6212 72.6928 27.6104 72.6728 27.6042 72.6542C29.1397 77.5913 31.7177 82.1409 35.1639 85.9952C38.6101 89.8496 42.8439 92.9188 47.579 94.9951V65.9007Z" fill="#0A0A0A"/>
<path d="M61.9992 26.002C42.117 26.002 26 42.119 26 62.0012C25.9996 63.9435 26.1545 65.8827 26.4633 67.8003C26.4448 67.6767 26.4232 67.5532 26.4046 67.4296C27.7142 66.7923 29.0424 66.1869 30.3891 65.6135C35.9072 63.2765 41.6742 61.5775 47.5779 60.5495C49.321 60.2406 51.0764 59.9956 52.8442 59.8144C54.3289 59.6568 55.8218 59.541 57.3229 59.4669C58.649 59.402 59.9813 59.3696 61.3197 59.3696C64.4089 59.3679 67.4955 59.5448 70.5643 59.8993C71.1083 61.6382 70.9572 63.5203 70.1427 65.1501C67.2143 64.8058 64.2683 64.6335 61.3197 64.6343C60.009 64.6343 58.703 64.6683 57.4016 64.7363C55.8737 64.8145 54.3546 64.9391 52.8442 65.11V96.8251C52.3943 96.7067 51.948 96.5801 51.5052 96.4452C54.907 97.4802 58.4435 98.0048 61.9992 98.0019C81.8814 98.0019 98 81.8834 98 62.0012C98 42.119 81.8814 26.002 61.9992 26.002ZM97.4162 68.4628C97.3853 68.6265 97.356 68.7887 97.3236 68.9508C97.3035 69.0528 97.2849 69.1547 97.2633 69.2597C97.2077 69.5284 97.1521 69.7971 97.0904 70.0643C97.0896 70.07 97.0896 70.0757 97.0904 70.0813C96.9421 70.7238 96.7774 71.3595 96.5962 71.9886V72.0056C96.5344 72.2172 96.4726 72.4272 96.4077 72.6372C96.4077 72.6542 96.3969 72.6697 96.3923 72.6867C96.3568 72.7994 96.3197 72.9106 96.2842 73.0233C96.2487 73.1361 96.224 73.2133 96.1931 73.3075C94.2472 72.2779 92.2529 71.3261 90.2102 70.452C86.7147 68.9731 83.1103 67.7664 79.429 66.8428C78.3923 70.1593 76.3238 73.0583 73.5249 75.1175C70.726 77.1767 67.3427 78.2886 63.8679 78.2912H57.4217V73.0264H63.8679C66.1341 73.0238 68.3445 72.324 70.1993 71.0218C72.054 69.7197 73.4631 67.8784 74.2353 65.7478C74.8357 64.0831 75.0268 62.2984 74.7922 60.5443C74.5577 58.7903 73.9045 57.1184 72.8879 55.67C71.8712 54.2215 70.5208 53.0389 68.9509 52.2222C67.381 51.4055 65.6376 50.9786 63.8679 50.9775H52.8442V55.2353C51.0733 55.4206 49.3179 55.6569 47.5779 55.9442V45.7127H63.8679C67.2095 45.7158 70.4696 46.745 73.2073 48.661C75.945 50.577 78.0284 53.2875 79.1757 56.426C79.7827 58.0875 80.1124 59.8374 80.1517 61.6058C84.2871 62.6133 88.3342 63.9535 92.2534 65.6135C94.0335 66.3681 95.7802 67.1825 97.4934 68.0566C97.4934 68.0566 97.4934 68.0644 97.4934 68.069C97.4641 68.2018 97.4394 68.3315 97.4162 68.4628Z" fill="#0A0A0A"/>
<path d="M150.44 55.4855C150.44 62.8843 144.485 68.8577 136.786 68.8577H130.922V81.1213H122V42.1133H136.763C144.485 42.1133 150.44 48.0867 150.44 55.4855ZM141.519 55.4855C141.519 52.6346 139.503 50.4624 136.786 50.4624H130.944V60.4859H136.809C139.503 60.4859 141.519 58.3364 141.519 55.4855Z" fill="#0A0A0A"/>
<path d="M149.331 67.1834C149.331 58.8795 155.897 52.4762 164.094 52.4762C172.291 52.4762 178.858 58.8795 178.858 67.1834C178.858 75.4873 172.268 81.8906 164.094 81.8906C155.92 81.8906 149.331 75.4873 149.331 67.1834ZM170.502 67.1834C170.502 63.2238 167.717 60.6217 164.094 60.6217C160.471 60.6217 157.686 63.2464 157.686 67.1834C157.686 71.1204 160.471 73.7451 164.094 73.7451C167.717 73.7451 170.502 71.143 170.502 67.1834Z" fill="#0A0A0A"/>
<path d="M208.135 64.0157V81.1213H199.78V65.2375C199.78 61.7757 197.606 60.1692 194.934 60.1692C191.878 60.1692 189.749 61.9567 189.749 65.9163V81.1213H181.394V53.2455H189.749V55.8702C191.243 53.8112 194.051 52.4762 197.72 52.4762C203.335 52.4762 208.135 56.4811 208.135 64.0157Z" fill="#0A0A0A"/>
<path d="M222.242 61.2779V71.143C222.242 73.5414 224.303 73.7676 227.994 73.5414V81.1212C217.057 82.2299 213.887 78.9491 213.887 71.143V61.2779H209.403V53.2455H213.864V47.9509L222.22 45.4393V53.2455H227.971V61.2779H222.242Z" fill="#0A0A0A"/>
<path d="M228.537 67.1834C228.537 58.8795 235.126 52.4762 243.301 52.4762C251.475 52.4762 258.064 58.8795 258.064 67.1834C258.064 75.4873 251.498 81.8906 243.301 81.8906C235.104 81.8906 228.537 75.4873 228.537 67.1834ZM249.709 67.1834C249.709 63.2238 246.924 60.6217 243.301 60.6217C239.678 60.6217 236.893 63.2464 236.893 67.1834C236.893 71.1204 239.678 73.7451 243.301 73.7451C246.924 73.7451 249.709 71.143 249.709 67.1834Z" fill="#0A0A0A"/>
<path d="M260.283 67.1834C260.283 58.8795 266.872 52.4762 275.047 52.4762C283.221 52.4762 289.81 58.8795 289.81 67.1834C289.81 75.4873 283.244 81.8906 275.047 81.8906C266.85 81.8906 260.283 75.4873 260.283 67.1834ZM281.477 67.1834C281.477 63.2238 278.692 60.6217 275.069 60.6217C271.446 60.6217 268.661 63.2464 268.661 67.1834C268.661 71.1204 271.446 73.7451 275.069 73.7451C278.692 73.7451 281.477 71.143 281.477 67.1834Z" fill="#0A0A0A"/>
<path d="M319.111 64.0157V81.1213H310.755V65.2375C310.755 61.7757 308.581 60.1692 305.91 60.1692C302.853 60.1692 300.724 61.9567 300.724 65.9163V81.1213H292.391V53.2455H300.747V55.8702C302.241 53.8112 305.049 52.4762 308.717 52.4762C314.31 52.4762 319.111 56.4811 319.111 64.0157Z" fill="#0A0A0A"/>
</svg>
