<svg width="346" height="125" viewBox="0 0 346 125" fill="none" xmlns="http://www.w3.org/2000/svg">
<path d="M47.579 65.9031C42.3849 66.8767 37.3107 68.4067 32.4442 70.4668C30.8041 71.1607 29.1964 71.9097 27.6212 72.7138C27.6212 72.6953 27.6104 72.6752 27.6042 72.6567C29.1397 77.5937 31.7177 82.1433 35.1639 85.9977C38.6101 89.852 42.8439 92.9212 47.579 94.9975V65.9031Z" fill="white"/>
<path d="M61.9992 26.0044C42.117 26.0044 26 42.1214 26 62.0036C25.9996 63.9459 26.1545 65.8851 26.4633 67.8027C26.4448 67.6792 26.4232 67.5556 26.4046 67.4321C27.7142 66.7948 29.0424 66.1894 30.3891 65.6159C35.9072 63.2789 41.6742 61.5799 47.5779 60.5519C49.321 60.243 51.0764 59.998 52.8442 59.8168C54.3289 59.6593 55.8218 59.5434 57.3229 59.4693C58.649 59.4044 59.9813 59.372 61.3197 59.372C64.4089 59.3704 67.4955 59.5472 70.5643 59.9017C71.1083 61.6407 70.9572 63.5227 70.1427 65.1526C67.2143 64.8082 64.2683 64.636 61.3197 64.6368C60.009 64.6368 58.703 64.6707 57.4016 64.7387C55.8737 64.8169 54.3546 64.9415 52.8442 65.1124V96.8276C52.3943 96.7092 51.948 96.5825 51.5052 96.4477C54.907 97.4827 58.4435 98.0073 61.9992 98.0044C81.8814 98.0044 98 81.8858 98 62.0036C98 42.1214 81.8814 26.0044 61.9992 26.0044ZM97.4162 68.4653C97.3853 68.629 97.356 68.7911 97.3236 68.9533C97.3035 69.0552 97.2849 69.1571 97.2633 69.2622C97.2077 69.5309 97.1521 69.7996 97.0904 70.0668C97.0896 70.0724 97.0896 70.0781 97.0904 70.0838C96.9421 70.7262 96.7774 71.362 96.5962 71.991V72.008C96.5344 72.2196 96.4726 72.4296 96.4077 72.6397C96.4077 72.6567 96.3969 72.6721 96.3923 72.6891C96.3568 72.8018 96.3197 72.913 96.2842 73.0258C96.2487 73.1385 96.224 73.2157 96.1931 73.3099C94.2472 72.2804 92.2529 71.3285 90.2102 70.4544C86.7147 68.9755 83.1103 67.7689 79.429 66.8452C78.3923 70.1618 76.3238 73.0608 73.5249 75.12C70.726 77.1792 67.3427 78.291 63.8679 78.2936H57.4217V73.0289H63.8679C66.1341 73.0263 68.3445 72.3264 70.1993 71.0243C72.054 69.7221 73.4631 67.8808 74.2353 65.7503C74.8357 64.0856 75.0268 62.3008 74.7922 60.5468C74.5577 58.7927 73.9045 57.1209 72.8879 55.6724C71.8712 54.2239 70.5208 53.0414 68.9509 52.2247C67.381 51.4079 65.6376 50.981 63.8679 50.9799H52.8442V55.2377C51.0733 55.4231 49.3179 55.6594 47.5779 55.9466V45.7152H63.8679C67.2095 45.7183 70.4696 46.7474 73.2073 48.6634C75.945 50.5795 78.0284 53.29 79.1757 56.4284C79.7827 58.0899 80.1124 59.8398 80.1517 61.6083C84.2871 62.6157 88.3342 63.9559 92.2534 65.6159C94.0335 66.3706 95.7802 67.185 97.4934 68.0591C97.4934 68.0591 97.4934 68.0668 97.4934 68.0714C97.4641 68.2043 97.4394 68.334 97.4162 68.4653Z" fill="white"/>
<path d="M150.44 55.4879C150.44 62.8868 144.485 68.8602 136.786 68.8602H130.922V81.1237H122V42.1157H136.763C144.485 42.1157 150.44 48.0891 150.44 55.4879ZM141.519 55.4879C141.519 52.637 139.503 50.4649 136.786 50.4649H130.944V60.4884H136.809C139.503 60.4884 141.519 58.3389 141.519 55.4879Z" fill="white"/>
<path d="M149.331 67.1858C149.331 58.8819 155.897 52.4787 164.094 52.4787C172.291 52.4787 178.858 58.8819 178.858 67.1858C178.858 75.4897 172.268 81.893 164.094 81.893C155.92 81.893 149.331 75.4897 149.331 67.1858ZM170.502 67.1858C170.502 63.2262 167.717 60.6242 164.094 60.6242C160.471 60.6242 157.686 63.2488 157.686 67.1858C157.686 71.1228 160.471 73.7475 164.094 73.7475C167.717 73.7475 170.502 71.1455 170.502 67.1858Z" fill="white"/>
<path d="M208.135 64.0181V81.1237H199.78V65.24C199.78 61.7781 197.606 60.1716 194.934 60.1716C191.878 60.1716 189.749 61.9591 189.749 65.9188V81.1237H181.394V53.2479H189.749V55.8726C191.243 53.8136 194.051 52.4787 197.72 52.4787C203.335 52.4787 208.135 56.4835 208.135 64.0181Z" fill="white"/>
<path d="M222.242 61.2803V71.1454C222.242 73.5438 224.303 73.7701 227.994 73.5438V81.1237C217.057 82.2324 213.887 78.9515 213.887 71.1454V61.2803H209.403V53.2479H213.864V47.9533L222.22 45.4418V53.2479H227.971V61.2803H222.242Z" fill="white"/>
<path d="M228.537 67.1858C228.537 58.8819 235.126 52.4787 243.301 52.4787C251.475 52.4787 258.064 58.8819 258.064 67.1858C258.064 75.4897 251.498 81.893 243.301 81.893C235.104 81.893 228.537 75.4897 228.537 67.1858ZM249.709 67.1858C249.709 63.2262 246.924 60.6242 243.301 60.6242C239.678 60.6242 236.893 63.2488 236.893 67.1858C236.893 71.1228 239.678 73.7475 243.301 73.7475C246.924 73.7475 249.709 71.1455 249.709 67.1858Z" fill="white"/>
<path d="M260.283 67.1858C260.283 58.8819 266.872 52.4787 275.047 52.4787C283.221 52.4787 289.81 58.8819 289.81 67.1858C289.81 75.4897 283.244 81.893 275.047 81.893C266.85 81.893 260.283 75.4897 260.283 67.1858ZM281.477 67.1858C281.477 63.2262 278.692 60.6242 275.069 60.6242C271.446 60.6242 268.661 63.2488 268.661 67.1858C268.661 71.1228 271.446 73.7475 275.069 73.7475C278.692 73.7475 281.477 71.1455 281.477 67.1858Z" fill="white"/>
<path d="M319.111 64.0181V81.1237H310.755V65.24C310.755 61.7781 308.581 60.1716 305.91 60.1716C302.853 60.1716 300.724 61.9591 300.724 65.9188V81.1237H292.391V53.2479H300.747V55.8726C302.241 53.8136 305.049 52.4787 308.717 52.4787C314.31 52.4787 319.111 56.4835 319.111 64.0181Z" fill="white"/>
</svg>
