<svg width="512" height="512" viewBox="0 0 512 512" fill="none" xmlns="http://www.w3.org/2000/svg">
<g clip-path="url(#clip0)">
<path d="M153.451 283.724C116.515 290.647 80.4319 301.528 45.8257 316.177C34.1626 321.111 22.7301 326.438 11.5283 332.156C11.5283 332.024 11.4515 331.881 11.4075 331.75C22.3266 366.857 40.6595 399.21 65.1656 426.619C89.6716 454.028 119.779 475.853 153.451 490.618V283.724Z" fill="#0A0A0A"/>
<path d="M255.995 0C114.61 0 5.9057e-06 114.61 5.9057e-06 255.995C-0.00294342 269.806 1.09879 283.596 3.29466 297.233C3.16287 296.354 3.00912 295.475 2.87734 294.597C12.1902 290.065 21.6349 285.76 31.2113 281.682C70.4512 265.063 111.461 252.982 153.443 245.671C165.838 243.475 178.321 241.732 190.892 240.444C201.45 239.324 212.066 238.5 222.74 237.973C232.171 237.512 241.644 237.281 251.162 237.281C273.13 237.269 295.079 238.527 316.902 241.048C320.77 253.413 319.696 266.797 313.904 278.387C293.08 275.938 272.13 274.713 251.162 274.719C241.842 274.719 232.555 274.961 223.301 275.444C212.436 276 201.633 276.886 190.892 278.102V503.632C187.693 502.79 184.519 501.889 181.371 500.93C205.561 508.29 230.709 512.021 255.995 512C397.379 512 512 397.379 512 255.995C512 114.61 397.379 0 255.995 0ZM507.849 301.944C507.629 303.108 507.42 304.261 507.19 305.414C507.047 306.139 506.915 306.864 506.762 307.611C506.366 309.522 505.971 311.433 505.532 313.332C505.526 313.373 505.526 313.413 505.532 313.453C504.477 318.022 503.306 322.543 502.017 327.016V327.137C501.578 328.642 501.139 330.135 500.677 331.629C500.677 331.75 500.601 331.859 500.568 331.98C500.315 332.782 500.051 333.573 499.799 334.374C499.546 335.176 499.371 335.725 499.151 336.395C485.313 329.074 471.132 322.305 456.606 316.089C431.749 305.573 406.118 296.992 379.939 290.424C372.567 314.008 357.858 334.623 337.955 349.266C318.051 363.91 293.993 371.816 269.283 371.835H223.443V334.396H269.283C285.398 334.378 301.117 329.401 314.306 320.141C327.495 310.882 337.515 297.788 343.006 282.637C347.276 270.8 348.635 258.108 346.967 245.635C345.299 233.162 340.655 221.273 333.425 210.972C326.195 200.672 316.593 192.263 305.429 186.455C294.265 180.647 281.867 177.611 269.283 177.604H190.892V207.882C178.299 209.199 165.816 210.88 153.443 212.922V140.166H269.283C293.045 140.188 316.228 147.506 335.696 161.131C355.165 174.756 369.98 194.031 378.138 216.349C382.455 228.164 384.799 240.608 385.079 253.183C414.486 260.347 443.265 269.878 471.135 281.682C483.794 287.048 496.215 292.84 508.398 299.056C508.398 299.056 508.398 299.111 508.398 299.144C508.189 300.088 508.013 301.01 507.849 301.944Z" fill="#0A0A0A"/>
</g>
<defs>
<clipPath id="clip0">
<rect width="512" height="512" rx="256" fill="white"/>
</clipPath>
</defs>
</svg>
