<svg width="96" height="96" viewBox="0 0 96 96" fill="none" xmlns="http://www.w3.org/2000/svg">
<g clip-path="url(#clip0)">
<rect width="96" height="96" fill="#F25138"/>
<path d="M61.4503 47.4999C61.4503 49.099 61.09 50.6756 60.3692 52.0945C56.09 51.599 51.8107 51.3513 47.5089 51.3513C45.5945 51.3513 43.7026 51.3963 41.7882 51.5089C39.5584 51.6215 37.3512 51.8017 35.144 52.0495V98.3107C32.5089 97.6125 29.9413 96.7341 27.4638 95.6305V53.1756C19.8963 54.5945 12.4864 56.8242 5.39176 59.8197C3.00437 60.8332 0.662026 61.9143 -1.63527 63.0855C-1.72536 62.7702 -1.81545 62.4549 -1.90554 62.1621C-1.99563 61.8693 -2.08572 61.5314 -2.17581 61.2161C-2.2659 60.9008 -2.35599 60.5855 -2.42356 60.2702C-2.49113 59.9549 -2.58122 59.6621 -2.64878 59.3468V59.3017C-2.71635 58.9864 -2.78392 58.6711 -2.87401 58.3332C-2.87401 58.3332 -2.87401 58.3332 -2.87401 58.3107C-2.94158 57.9954 -3.00915 57.6576 -3.07671 57.3423C-3.14428 57.0269 -3.18933 56.6891 -3.25689 56.3738C-3.32446 56.0585 -3.36951 55.7206 -3.41455 55.3828C-1.50014 54.4594 0.436801 53.581 2.39626 52.7251C10.4368 49.3242 18.8602 46.8468 27.4638 45.3377C30.0089 44.8873 32.5764 44.5269 35.144 44.2567C37.3062 44.0314 39.4909 43.8513 41.6755 43.7386C43.6125 43.6486 45.5494 43.6035 47.5089 43.6035C52.0134 43.6035 56.5179 43.8513 60.9999 44.3693C61.2927 45.4278 61.4503 46.4639 61.4503 47.4999Z" fill="white"/>
<path d="M100.257 56.3289C97.7567 55.0451 95.2116 53.8739 92.6215 52.7703C86.9008 50.3604 80.9999 48.4009 74.9864 46.937C74.9188 44.3469 74.4458 41.8018 73.5675 39.3694C70.144 30 61.2251 23.7388 51.2477 23.7388H27.4639V38.6712C30.0089 38.2433 32.554 37.9054 35.144 37.6352V31.4415H51.2251C60.099 31.5541 67.2161 38.8289 67.1035 47.7027C66.9909 56.4415 59.9413 63.491 51.2251 63.5811H41.8332V71.2613H51.2251C61.608 71.2388 70.7972 64.5045 73.9053 54.5721C79.2657 55.9235 84.5359 57.6802 89.626 59.8424C92.599 61.1036 95.5044 62.5 98.3648 64.009C98.4098 63.8739 98.4549 63.7388 98.4999 63.6036C98.545 63.4685 98.6125 63.2658 98.6576 63.1081C98.6576 63.0856 98.6801 63.0631 98.6801 63.0406C98.7702 62.7253 98.8603 62.4325 98.9504 62.1172V62.0946C99.2206 61.1712 99.4458 60.2478 99.6711 59.3018V59.2793C99.7612 58.8964 99.8513 58.491 99.9188 58.1081C99.9413 57.9505 99.9864 57.8154 100.009 57.6577C100.054 57.4325 100.099 57.1847 100.144 56.937C100.167 56.7343 100.212 56.5541 100.257 56.3739C100.234 56.3739 100.234 56.3514 100.257 56.3289Z" fill="white"/>
</g>
<defs>
<clipPath id="clip0">
<rect width="96" height="96" fill="white"/>
</clipPath>
</defs>
</svg>
