<svg width="346" height="124" viewBox="0 0 346 124" fill="none" xmlns="http://www.w3.org/2000/svg">
<rect width="345.111" height="124" fill="white"/>
<path d="M47.579 65.8987C42.3849 66.8723 37.3107 68.4023 32.4442 70.4624C30.8041 71.1563 29.1964 71.9053 27.6212 72.7094C27.6212 72.6909 27.6104 72.6708 27.6042 72.6523C29.1397 77.5893 31.7177 82.1389 35.1639 85.9933C38.6101 89.8476 42.8439 92.9168 47.579 94.9931V65.8987Z" fill="#0A0A0A"/>
<path d="M61.9992 26C42.117 26 26 42.117 26 61.9992C25.9996 63.9415 26.1545 65.8807 26.4633 67.7983C26.4448 67.6748 26.4232 67.5512 26.4046 67.4277C27.7142 66.7904 29.0424 66.185 30.3891 65.6115C35.9072 63.2745 41.6742 61.5755 47.5779 60.5475C49.321 60.2386 51.0764 59.9936 52.8442 59.8124C54.3289 59.6549 55.8218 59.539 57.3229 59.4649C58.649 59.4001 59.9813 59.3676 61.3197 59.3676C64.4089 59.366 67.4955 59.5429 70.5643 59.8973C71.1083 61.6363 70.9572 63.5184 70.1427 65.1482C67.2143 64.8038 64.2683 64.6316 61.3197 64.6324C60.009 64.6324 58.703 64.6663 57.4016 64.7343C55.8737 64.8125 54.3546 64.9371 52.8442 65.108V96.8232C52.3943 96.7048 51.948 96.5781 51.5052 96.4433C54.907 97.4783 58.4435 98.0029 61.9992 98C81.8814 98 98 81.8814 98 61.9992C98 42.117 81.8814 26 61.9992 26ZM97.4162 68.4609C97.3853 68.6246 97.356 68.7867 97.3236 68.9489C97.3035 69.0508 97.2849 69.1527 97.2633 69.2578C97.2077 69.5265 97.1521 69.7952 97.0904 70.0624C97.0896 70.068 97.0896 70.0737 97.0904 70.0794C96.9421 70.7218 96.7774 71.3576 96.5962 71.9867V72.0036C96.5344 72.2152 96.4726 72.4253 96.4077 72.6353C96.4077 72.6523 96.3969 72.6677 96.3923 72.6847C96.3568 72.7974 96.3197 72.9086 96.2842 73.0214C96.2487 73.1341 96.224 73.2113 96.1931 73.3055C94.2472 72.276 92.2529 71.3241 90.2102 70.45C86.7147 68.9711 83.1103 67.7645 79.429 66.8408C78.3923 70.1574 76.3238 73.0564 73.5249 75.1156C70.726 77.1748 67.3427 78.2866 63.8679 78.2892H57.4217V73.0245H63.8679C66.1341 73.0219 68.3445 72.322 70.1993 71.0199C72.054 69.7177 73.4631 67.8764 74.2353 65.7459C74.8357 64.0812 75.0268 62.2964 74.7922 60.5424C74.5577 58.7883 73.9045 57.1165 72.8879 55.668C71.8712 54.2195 70.5208 53.037 68.9509 52.2203C67.381 51.4035 65.6376 50.9766 63.8679 50.9755H52.8442V55.2333C51.0733 55.4187 49.3179 55.655 47.5779 55.9422V45.7108H63.8679C67.2095 45.7139 70.4696 46.743 73.2073 48.6591C75.945 50.5751 78.0284 53.2856 79.1757 56.4241C79.7827 58.0855 80.1124 59.8354 80.1517 61.6039C84.2871 62.6113 88.3342 63.9515 92.2534 65.6115C94.0335 66.3662 95.7802 67.1806 97.4934 68.0547C97.4934 68.0547 97.4934 68.0624 97.4934 68.0671C97.4641 68.1999 97.4394 68.3296 97.4162 68.4609Z" fill="#0A0A0A"/>
<path d="M150.44 55.4836C150.44 62.8824 144.485 68.8558 136.786 68.8558H130.922V81.1193H122V42.1113H136.763C144.485 42.1113 150.44 48.0847 150.44 55.4836ZM141.519 55.4836C141.519 52.6326 139.503 50.4605 136.786 50.4605H130.944V60.484H136.809C139.503 60.484 141.519 58.3345 141.519 55.4836Z" fill="#0A0A0A"/>
<path d="M149.331 67.1814C149.331 58.8775 155.897 52.4743 164.094 52.4743C172.291 52.4743 178.858 58.8775 178.858 67.1814C178.858 75.4853 172.268 81.8886 164.094 81.8886C155.92 81.8886 149.331 75.4853 149.331 67.1814ZM170.502 67.1814C170.502 63.2218 167.717 60.6198 164.094 60.6198C160.471 60.6198 157.686 63.2444 157.686 67.1814C157.686 71.1184 160.471 73.7431 164.094 73.7431C167.717 73.7431 170.502 71.1411 170.502 67.1814Z" fill="#0A0A0A"/>
<path d="M208.135 64.0137V81.1193H199.78V65.2356C199.78 61.7737 197.606 60.1672 194.934 60.1672C191.878 60.1672 189.749 61.9547 189.749 65.9144V81.1193H181.394V53.2436H189.749V55.8682C191.243 53.8092 194.051 52.4743 197.72 52.4743C203.335 52.4743 208.135 56.4791 208.135 64.0137Z" fill="#0A0A0A"/>
<path d="M222.242 61.2759V71.141C222.242 73.5394 224.303 73.7657 227.994 73.5394V81.1193C217.057 82.228 213.887 78.9471 213.887 71.141V61.2759H209.403V53.2435H213.864V47.9489L222.22 45.4374V53.2435H227.971V61.2759H222.242Z" fill="#0A0A0A"/>
<path d="M228.537 67.1814C228.537 58.8775 235.126 52.4743 243.301 52.4743C251.475 52.4743 258.064 58.8775 258.064 67.1814C258.064 75.4853 251.498 81.8886 243.301 81.8886C235.104 81.8886 228.537 75.4853 228.537 67.1814ZM249.709 67.1814C249.709 63.2218 246.924 60.6198 243.301 60.6198C239.678 60.6198 236.893 63.2444 236.893 67.1814C236.893 71.1184 239.678 73.7431 243.301 73.7431C246.924 73.7431 249.709 71.1411 249.709 67.1814Z" fill="#0A0A0A"/>
<path d="M260.283 67.1814C260.283 58.8775 266.872 52.4743 275.047 52.4743C283.221 52.4743 289.81 58.8775 289.81 67.1814C289.81 75.4853 283.244 81.8886 275.047 81.8886C266.85 81.8886 260.283 75.4853 260.283 67.1814ZM281.477 67.1814C281.477 63.2218 278.692 60.6198 275.069 60.6198C271.446 60.6198 268.661 63.2444 268.661 67.1814C268.661 71.1184 271.446 73.7431 275.069 73.7431C278.692 73.7431 281.477 71.1411 281.477 67.1814Z" fill="#0A0A0A"/>
<path d="M319.111 64.0137V81.1193H310.755V65.2356C310.755 61.7737 308.581 60.1672 305.91 60.1672C302.853 60.1672 300.724 61.9547 300.724 65.9144V81.1193H292.391V53.2436H300.747V55.8682C302.241 53.8092 305.049 52.4743 308.717 52.4743C314.31 52.4743 319.111 56.4791 319.111 64.0137Z" fill="#0A0A0A"/>
</svg>
